<?xml version="1.0" encoding="UTF-8"?>
<svg version="1.1" xmlns="http://www.w3.org/2000/svg" width="1032" height="242">
<path d="M0 0 C9.48499232 8.82745386 15.29602625 20.09316939 16.21484375 33.0234375 C16.63562953 47.19550257 12.94111283 58.50045317 3.6875 69.1875 C-5.37152875 78.79691309 -16.21772698 85.18624355 -29.69140625 86.203125 C-45.50621034 86.46132588 -58.09009734 81.56933244 -69.51953125 70.671875 C-73.14521269 66.76641657 -75.69526485 62.78732767 -78 58 C-78.41121094 57.22914063 -78.82242188 56.45828125 -79.24609375 55.6640625 C-84.15948626 44.88520143 -83.90186955 29.9325015 -80 18.875 C-73.86507678 5.59125869 -64.43321449 -4.38169735 -50.84375 -10.03125 C-32.67900561 -16.21923985 -14.41050857 -12.45654131 0 0 Z " fill="#090909" transform="translate(124,81)"/>
<path d="M0 0 C1.11246094 -0.00257812 2.22492187 -0.00515625 3.37109375 -0.0078125 C4.53769531 -0.00007813 5.70429687 0.00765625 6.90625 0.015625 C8.07285156 0.00789063 9.23945312 0.00015625 10.44140625 -0.0078125 C11.55386719 -0.00523438 12.66632812 -0.00265625 13.8125 0 C14.83666016 0.00225586 15.86082031 0.00451172 16.91601562 0.00683594 C19.40625 0.265625 19.40625 0.265625 21.40625 2.265625 C21.58120606 4.77483346 21.63794569 7.17187441 21.6015625 9.6796875 C21.5987326 10.40932709 21.59590271 11.13896667 21.59298706 11.89071655 C21.58178002 14.22418528 21.5566751 16.55727203 21.53125 18.890625 C21.52122085 20.47134863 21.51209489 22.05207827 21.50390625 23.6328125 C21.48353928 27.51068269 21.44439327 31.38772562 21.40625 35.265625 C30.31625 35.265625 39.22625 35.265625 48.40625 35.265625 C48.38304687 32.90664062 48.35984375 30.54765625 48.3359375 28.1171875 C48.32034791 25.83691954 48.30819925 23.55665747 48.29638672 21.27636719 C48.28631812 19.68942617 48.27266233 18.10250375 48.25537109 16.515625 C48.23115999 14.23693253 48.21977578 11.95848494 48.2109375 9.6796875 C48.20061493 8.96817535 48.19029236 8.25666321 48.17965698 7.52359009 C48.17925578 5.76930835 48.28422791 4.01565791 48.40625 2.265625 C51.05324616 -0.38137116 52.31019409 0.00812733 56 0 C57.11246094 -0.00257812 58.22492188 -0.00515625 59.37109375 -0.0078125 C60.53769531 -0.00007813 61.70429687 0.00765625 62.90625 0.015625 C64.07285156 0.00789063 65.23945312 0.00015625 66.44140625 -0.0078125 C67.55386719 -0.00523438 68.66632813 -0.00265625 69.8125 0 C70.83666016 0.00225586 71.86082031 0.00451172 72.91601562 0.00683594 C75.40625 0.265625 75.40625 0.265625 77.40625 2.265625 C77.60496053 5.11662684 77.67893023 7.87050925 77.66503906 10.72265625 C77.6685437 11.59755707 77.67204834 12.47245789 77.67565918 13.37387085 C77.68448537 16.27536883 77.67862422 19.17662439 77.671875 22.078125 C77.6732214 24.088298 77.67516171 26.09847069 77.67767334 28.10864258 C77.68062581 32.32538955 77.67632302 36.54205191 77.66699219 40.75878906 C77.6555976 46.17304723 77.66215642 51.58710714 77.67413712 57.00135803 C77.6813524 61.15337629 77.67906931 65.30534729 77.67388153 69.45736694 C77.67254412 71.45413232 77.67419594 73.45090193 77.67884064 75.44766235 C77.68390043 78.2347557 77.67620338 81.02152466 77.66503906 83.80859375 C77.66908752 84.63982758 77.67313599 85.4710614 77.67730713 86.32748413 C77.63477799 92.03709701 77.63477799 92.03709701 75.40625 94.265625 C72.91601562 94.52441406 72.91601562 94.52441406 69.8125 94.53125 C68.70003906 94.53382813 67.58757812 94.53640625 66.44140625 94.5390625 C65.27480469 94.53132813 64.10820313 94.52359375 62.90625 94.515625 C61.73964844 94.52335937 60.57304688 94.53109375 59.37109375 94.5390625 C58.25863281 94.53648437 57.14617187 94.53390625 56 94.53125 C54.97583984 94.52899414 53.95167969 94.52673828 52.89648438 94.52441406 C50.40625 94.265625 50.40625 94.265625 48.40625 92.265625 C48.23129394 89.75641654 48.17455431 87.35937559 48.2109375 84.8515625 C48.2137674 84.12192291 48.21659729 83.39228333 48.21951294 82.64053345 C48.23071998 80.30706472 48.2558249 77.97397797 48.28125 75.640625 C48.29127915 74.05990137 48.30040511 72.47917173 48.30859375 70.8984375 C48.32896072 67.02056731 48.36810673 63.14352438 48.40625 59.265625 C39.49625 59.265625 30.58625 59.265625 21.40625 59.265625 C21.42945313 61.62460938 21.45265625 63.98359375 21.4765625 66.4140625 C21.49215209 68.69433046 21.50430075 70.97459253 21.51611328 73.25488281 C21.52618188 74.84182383 21.53983767 76.42874625 21.55712891 78.015625 C21.58134001 80.29431747 21.59272422 82.57276506 21.6015625 84.8515625 C21.61188507 85.56307465 21.62220764 86.27458679 21.63284302 87.00765991 C21.63324422 88.76194165 21.52827209 90.51559209 21.40625 92.265625 C18.75925384 94.91262116 17.50230591 94.52312267 13.8125 94.53125 C12.70003906 94.53382813 11.58757813 94.53640625 10.44140625 94.5390625 C9.27480469 94.53132813 8.10820313 94.52359375 6.90625 94.515625 C5.73964844 94.52335937 4.57304688 94.53109375 3.37109375 94.5390625 C2.25863281 94.53648437 1.14617188 94.53390625 0 94.53125 C-1.02416016 94.52899414 -2.04832031 94.52673828 -3.10351562 94.52441406 C-5.59375 94.265625 -5.59375 94.265625 -7.59375 92.265625 C-7.79246053 89.41462316 -7.86643023 86.66074075 -7.85253906 83.80859375 C-7.8560437 82.93369293 -7.85954834 82.05879211 -7.86315918 81.15737915 C-7.87198537 78.25588117 -7.86612422 75.35462561 -7.859375 72.453125 C-7.8607214 70.442952 -7.86266171 68.43277931 -7.86517334 66.42260742 C-7.86812581 62.20586045 -7.86382302 57.98919809 -7.85449219 53.77246094 C-7.8430976 48.35820277 -7.84965642 42.94414286 -7.86163712 37.52989197 C-7.8688524 33.37787371 -7.86656931 29.22590271 -7.86138153 25.07388306 C-7.86004412 23.07711768 -7.86169594 21.08034807 -7.86634064 19.08358765 C-7.87140043 16.2964943 -7.86370338 13.50972534 -7.85253906 10.72265625 C-7.85658752 9.89142242 -7.86063599 9.0601886 -7.86480713 8.20376587 C-7.81411255 1.39792836 -6.74769509 0.01486276 0 0 Z " fill="#000000" transform="translate(677.59375,71.734375)"/>
<path d="M0 0 C11.30300097 8.29533548 18.31429894 19.22187679 21 33 C22.56133809 47.34177562 18.65496008 59.57618617 10 71 C1.89440837 80.92170297 -10.44183788 86.98378131 -23 89 C-38.29176151 90.06734443 -51.68822771 86.39999781 -63.796875 76.77734375 C-74.62416307 66.68827986 -79.84529424 54.80888243 -80.375 40.25 C-80.1477522 27.06962765 -75.2474787 15.34610127 -66.25 5.75 C-47.53345088 -11.86557565 -21.50984033 -13.30175512 0 0 Z M-49.3203125 26.67578125 C-53.12181461 32.8831291 -52.78928587 39.97042274 -52 47 C-50.27320086 53.72372413 -45.5490036 58.09514562 -40 62 C-35.21425831 64.3419587 -30.24085255 64.81468381 -25 64 C-16.83881367 61.17030295 -12.47714863 57.27094591 -8.1875 49.875 C-5.54457355 42.95450472 -6.01070393 35.32061924 -9 28.625 C-12.51079299 22.45631853 -17.10525463 19.07939658 -23.6875 16.625 C-34.10608356 14.65922952 -42.79628954 18.39529056 -49.3203125 26.67578125 Z " fill="#000000" transform="translate(841,79)"/>
<path d="M0 0 C4.15894617 3.94836662 7.26774044 8.2331692 10.125 13.1875 C10.51558594 13.84621094 10.90617187 14.50492188 11.30859375 15.18359375 C16.74474951 25.080185 17.63173017 36.88123057 14.9375 47.75 C10.75983174 61.30335695 3.25453755 71.41043279 -9.03515625 78.71875 C-22.16618039 85.51003621 -35.69632439 87.15794593 -49.9921875 83.1640625 C-63.92742932 78.44345213 -73.89831972 70.12472406 -80.6875 57.0625 C-86.13683147 46.01504985 -86.87814597 32.48626841 -83.3125 20.6875 C-81.02317666 14.87181545 -77.821463 10.0082312 -73.875 5.1875 C-73.04935547 4.13949219 -73.04935547 4.13949219 -72.20703125 3.0703125 C-53.69301848 -17.93675718 -20.59631744 -17.31884649 0 0 Z M-52.140625 20.046875 C-56.60803659 25.56070733 -58.24919915 31.85202847 -57.9375 38.875 C-56.80543517 46.74341098 -52.7648333 52.13047704 -46.625 57 C-41.79884739 60.27488927 -36.58068807 60.87389857 -30.875 60.1875 C-24.66808345 58.69410655 -19.40585494 55.78568034 -15.65234375 50.44921875 C-11.90691925 44.17999566 -11.10440451 38.38676198 -11.875 31.1875 C-13.94770589 24.37871484 -17.22055428 18.46638465 -23.5625 14.9375 C-34.03279244 10.18708954 -43.83355481 12.13854418 -52.140625 20.046875 Z " fill="#000000" transform="translate(453.875,82.8125)"/>
<path d="M0 0 C1.39296547 -0.01441132 1.39296547 -0.01441132 2.81407166 -0.02911377 C4.33418602 -0.03548859 4.33418602 -0.03548859 5.88500977 -0.04199219 C6.92528824 -0.04769226 7.96556671 -0.05339233 9.03736877 -0.05926514 C11.24918597 -0.06873754 13.46101742 -0.07525796 15.67285156 -0.07910156 C19.03093905 -0.0887367 22.38839609 -0.11970949 25.74633789 -0.15136719 C27.89672489 -0.15790414 30.04711626 -0.16315189 32.19750977 -0.16699219 C33.19270126 -0.17933899 34.18789276 -0.19168579 35.21324158 -0.20440674 C45.51427491 -0.17210371 54.7935338 2.23079518 62.63891602 9.16113281 C68.74587412 16.45809774 71.0336331 23.50707137 71.01391602 32.91113281 C71.01230469 33.70737061 71.01069336 34.5036084 71.0090332 35.32397461 C70.83198995 43.84027591 68.6912872 50.91352385 62.63891602 57.16113281 C61.64891602 57.82113281 60.65891602 58.48113281 59.63891602 59.16113281 C60.31915733 62.83323679 61.90358429 65.62642567 63.76391602 68.84472656 C64.38782227 69.93720703 65.01172852 71.0296875 65.65454102 72.15527344 C66.97576814 74.4479146 68.2986812 76.73958501 69.62329102 79.03027344 C70.24719727 80.12404297 70.87110352 81.2178125 71.51391602 82.34472656 C72.08883789 83.34044678 72.66375977 84.33616699 73.25610352 85.36206055 C74.57730413 88.03641879 75.31329896 90.20464814 75.63891602 93.16113281 C73.01057166 95.78947717 66.00780192 94.52395605 62.44799805 94.56616211 C61.08218028 94.58770038 59.71649901 94.62175571 58.35131836 94.66870117 C46.79407308 95.0625389 46.79407308 95.0625389 42.58032227 91.77441406 C41.59936523 90.12426758 41.59936523 90.12426758 40.63891602 88.16113281 C40.18145996 87.39019287 39.72400391 86.61925293 39.25268555 85.82495117 C37.71335973 83.21796412 36.26410228 80.57536317 34.82641602 77.91113281 C34.32432617 77.00105469 33.82223633 76.09097656 33.30493164 75.15332031 C29.63891602 68.42979778 29.63891602 68.42979778 29.63891602 66.16113281 C27.32891602 66.16113281 25.01891602 66.16113281 22.63891602 66.16113281 C22.64677124 67.38014282 22.64677124 67.38014282 22.65478516 68.6237793 C22.67548596 72.28205603 22.68855404 75.94032049 22.70141602 79.59863281 C22.70979492 80.87802734 22.71817383 82.15742188 22.72680664 83.47558594 C22.73164062 85.29799805 22.73164062 85.29799805 22.73657227 87.15722656 C22.74442749 88.84609985 22.74442749 88.84609985 22.75244141 90.5690918 C22.63891602 93.16113281 22.63891602 93.16113281 21.63891602 94.16113281 C19.7243332 94.26085067 17.80609284 94.2919387 15.88891602 94.29394531 C14.72360352 94.29523438 13.55829102 94.29652344 12.35766602 94.29785156 C11.13047852 94.29398437 9.90329102 94.29011719 8.63891602 94.28613281 C6.79813477 94.29193359 6.79813477 94.29193359 4.92016602 94.29785156 C3.75485352 94.2965625 2.58954102 94.29527344 1.38891602 94.29394531 C0.31125977 94.29281738 -0.76639648 94.29168945 -1.87670898 94.29052734 C-4.36108398 94.16113281 -4.36108398 94.16113281 -5.36108398 93.16113281 C-5.46163512 90.305587 -5.49723942 87.47419258 -5.49047852 84.61816406 C-5.49223083 83.72229584 -5.49398315 82.82642761 -5.49578857 81.90341187 C-5.50020845 78.92679944 -5.49726862 75.9502459 -5.49389648 72.97363281 C-5.49456948 70.91479481 -5.49553948 68.85595687 -5.49679565 66.79711914 C-5.49827281 62.47606655 -5.4961175 58.15503458 -5.49145508 53.83398438 C-5.48575778 48.28176735 -5.48903669 42.72959867 -5.49502754 37.17738342 C-5.49863267 32.9241906 -5.49749479 28.67100932 -5.49489975 24.41781616 C-5.49423035 22.36998489 -5.49505936 20.32215258 -5.4973793 18.27432251 C-5.49990504 15.41755374 -5.49606635 12.56086439 -5.49047852 9.70410156 C-5.49250275 8.84899994 -5.49452698 7.99389832 -5.49661255 7.11288452 C-5.47086596 0.04553654 -5.47086596 0.04553654 0 0 Z M22.63891602 23.16113281 C22.63891602 29.43113281 22.63891602 35.70113281 22.63891602 42.16113281 C26.69172852 42.31582031 26.69172852 42.31582031 30.82641602 42.47363281 C32.08941528 42.54191284 32.08941528 42.54191284 33.37792969 42.61157227 C37.55483 42.68852692 39.19681116 42.49428835 42.65063477 39.89160156 C45.07144306 36.56715166 45.38218354 35.05699713 45.13500977 31.09472656 C44.28425319 27.77878558 42.27833848 26.1867361 39.63891602 24.16113281 C34.21256437 22.35234893 28.30777039 23.10912497 22.63891602 23.16113281 Z " fill="#000000" transform="translate(872.361083984375,71.8388671875)"/>
<path d="M0 0 C1.11246094 -0.00257812 2.22492187 -0.00515625 3.37109375 -0.0078125 C4.53769531 -0.00007813 5.70429687 0.00765625 6.90625 0.015625 C8.07285156 0.00789063 9.23945312 0.00015625 10.44140625 -0.0078125 C11.55386719 -0.00523438 12.66632812 -0.00265625 13.8125 0 C14.83666016 0.00225586 15.86082031 0.00451172 16.91601562 0.00683594 C19.40625 0.265625 19.40625 0.265625 21.40625 2.265625 C21.58120606 4.77483346 21.63794569 7.17187441 21.6015625 9.6796875 C21.5987326 10.40932709 21.59590271 11.13896667 21.59298706 11.89071655 C21.58178002 14.22418528 21.5566751 16.55727203 21.53125 18.890625 C21.52122085 20.47134863 21.51209489 22.05207827 21.50390625 23.6328125 C21.48183905 27.51056414 21.44730615 31.38802978 21.40625 35.265625 C24.33984728 34.9989316 24.33984728 34.9989316 27.40625 34.265625 C29.01524746 31.87547016 30.09650997 29.87329053 31.21875 27.265625 C31.89233173 25.81538263 32.56819837 24.36619979 33.24609375 22.91796875 C33.76792236 21.78077393 33.76792236 21.78077393 34.30029297 20.62060547 C36.17541711 16.62779147 38.22354313 12.72913344 40.28125 8.828125 C40.6625708 8.08884766 41.0438916 7.34957031 41.43676758 6.58789062 C44.17123026 1.38313487 44.17123026 1.38313487 46.40625 0.265625 C48.65745742 0.17989106 50.91124303 0.15850312 53.1640625 0.16796875 C54.15863968 0.17009117 54.15863968 0.17009117 55.17330933 0.17225647 C57.29266863 0.17785746 59.41192259 0.19041 61.53125 0.203125 C62.96744639 0.20813988 64.40364444 0.21270281 65.83984375 0.21679688 C69.36201345 0.22782718 72.88412145 0.24509241 76.40625 0.265625 C77.60635309 4.41093312 77.27962833 6.3517871 75.23046875 10.1171875 C74.73627441 11.04225098 74.24208008 11.96731445 73.73291016 12.92041016 C73.1919873 13.90058105 72.65106445 14.88075195 72.09375 15.890625 C71.55282715 16.90302246 71.0119043 17.91541992 70.45458984 18.95849609 C67.78758445 23.94226253 65.06081183 28.89102815 62.30859375 33.828125 C61.8391333 34.6845459 61.36967285 35.5409668 60.88598633 36.42333984 C59.99996236 38.03699244 59.09800362 39.64202325 58.1784668 41.23681641 C57.78183838 41.96046387 57.38520996 42.68411133 56.9765625 43.4296875 C56.62352051 44.05311035 56.27047852 44.6765332 55.90673828 45.31884766 C55.14679145 48.27485549 56.00084442 49.55738077 57.40625 52.265625 C59.13960132 55.05233771 60.98814603 57.75216841 62.8515625 60.453125 C63.93919331 62.05442184 65.02642079 63.65599269 66.11328125 65.2578125 C67.82483383 67.76927102 69.53986649 70.27815232 71.26220703 72.78222656 C72.92728616 75.20735751 74.57779762 77.64188422 76.2265625 80.078125 C76.74525909 80.82408936 77.26395569 81.57005371 77.79837036 82.33862305 C82.22551794 88.91552976 82.22551794 88.91552976 81.40625 93.265625 C78.77521745 95.89665755 71.83071044 94.67255346 68.27026367 94.72558594 C66.91117961 94.75211096 65.55229368 94.79294866 64.1940918 94.84863281 C53.19030453 95.29442383 53.19030453 95.29442383 49.45410156 93.13989258 C47.79316374 91.29805771 46.64843158 89.41508735 45.40625 87.265625 C44.35782606 85.72682751 43.30892667 84.18833751 42.25306702 82.65463257 C40.69736674 80.37170194 39.19324774 78.0569792 37.69042969 75.73901367 C36.51956913 73.93512888 35.33845116 72.13826469 34.15625 70.34179688 C33.40824028 69.19571293 32.6608221 68.04924264 31.9140625 66.90234375 C31.24004395 65.86811279 30.56602539 64.83388184 29.87158203 63.76831055 C28.40625 61.265625 28.40625 61.265625 28.40625 59.265625 C26.09625 59.265625 23.78625 59.265625 21.40625 59.265625 C21.41672363 60.25481934 21.42719727 61.24401367 21.43798828 62.26318359 C21.47414019 65.92704664 21.49713282 69.59089386 21.51611328 73.25488281 C21.52618188 74.84182383 21.53983767 76.42874625 21.55712891 78.015625 C21.58134001 80.29431747 21.59272422 82.57276506 21.6015625 84.8515625 C21.61188507 85.56307465 21.62220764 86.27458679 21.63284302 87.00765991 C21.63324422 88.76194165 21.52827209 90.51559209 21.40625 92.265625 C18.75925384 94.91262116 17.50230591 94.52312267 13.8125 94.53125 C12.70003906 94.53382813 11.58757813 94.53640625 10.44140625 94.5390625 C9.27480469 94.53132813 8.10820313 94.52359375 6.90625 94.515625 C5.73964844 94.52335937 4.57304688 94.53109375 3.37109375 94.5390625 C2.25863281 94.53648437 1.14617188 94.53390625 0 94.53125 C-1.02416016 94.52899414 -2.04832031 94.52673828 -3.10351562 94.52441406 C-5.59375 94.265625 -5.59375 94.265625 -7.59375 92.265625 C-7.79246053 89.41462316 -7.86643023 86.66074075 -7.85253906 83.80859375 C-7.8560437 82.93369293 -7.85954834 82.05879211 -7.86315918 81.15737915 C-7.87198537 78.25588117 -7.86612422 75.35462561 -7.859375 72.453125 C-7.8607214 70.442952 -7.86266171 68.43277931 -7.86517334 66.42260742 C-7.86812581 62.20586045 -7.86382302 57.98919809 -7.85449219 53.77246094 C-7.8430976 48.35820277 -7.84965642 42.94414286 -7.86163712 37.52989197 C-7.8688524 33.37787371 -7.86656931 29.22590271 -7.86138153 25.07388306 C-7.86004412 23.07711768 -7.86169594 21.08034807 -7.86634064 19.08358765 C-7.87140043 16.2964943 -7.86370338 13.50972534 -7.85253906 10.72265625 C-7.85658752 9.89142242 -7.86063599 9.0601886 -7.86480713 8.20376587 C-7.81411255 1.39792836 -6.74769509 0.01486276 0 0 Z " fill="#000000" transform="translate(583.59375,71.734375)"/>
<path d="M0 0 C0.92313995 -0.00570007 1.84627991 -0.01140015 2.7973938 -0.01727295 C4.75944877 -0.0267362 6.72151973 -0.03326217 8.68359375 -0.03710938 C11.64873286 -0.04672396 14.6131514 -0.07769582 17.578125 -0.109375 C42.8198336 -0.25296652 42.8198336 -0.25296652 52.19921875 7.5859375 C56.99596464 12.37112497 58.9679011 17.11189864 59.1328125 23.890625 C59.05175911 30.60995114 57.80354036 35.22628521 52.99609375 40.0234375 C51.31460622 41.49004934 49.61194272 42.87450034 47.8203125 44.203125 C48.49578125 44.57824219 49.17125 44.95335937 49.8671875 45.33984375 C57.3730129 49.64593145 61.7918609 53.30132357 64.34375 61.7421875 C65.61069668 68.28461707 64.3581757 74.55328706 61.10546875 80.32421875 C55.83633027 88.02773124 48.91400525 92.2750289 39.8203125 94.203125 C38.14612858 94.29273324 36.46881592 94.33099744 34.79223633 94.33251953 C33.79472855 94.33567169 32.79722076 94.33882385 31.76948547 94.34207153 C30.6995787 94.3400473 29.62967194 94.33802307 28.52734375 94.3359375 C27.42557297 94.33689423 26.32380219 94.33785095 25.18864441 94.33883667 C22.8628229 94.33951668 20.53699949 94.33767488 18.21118164 94.33349609 C14.6361876 94.32813007 11.06131833 94.33345501 7.48632812 94.33984375 C5.22916639 94.33918324 2.97200473 94.33790263 0.71484375 94.3359375 C-0.36113571 94.33796173 -1.43711517 94.33998596 -2.54570007 94.34207153 C-4.02777702 94.33734329 -4.02777702 94.33734329 -5.53979492 94.33251953 C-6.41375412 94.33172394 -7.28771332 94.33092834 -8.18815613 94.33010864 C-10.1796875 94.203125 -10.1796875 94.203125 -11.1796875 93.203125 C-11.27491168 90.34220682 -11.30522076 87.50548879 -11.29321289 84.64428711 C-11.29335892 83.74681259 -11.29350494 82.84933807 -11.2936554 81.92466736 C-11.29295592 78.94324366 -11.28516191 75.9618816 -11.27734375 72.98046875 C-11.27547969 70.91923558 -11.27405573 68.85800196 -11.27305603 66.79676819 C-11.26922987 61.3600849 -11.25939876 55.92342814 -11.24835205 50.48675537 C-11.23814003 44.94364786 -11.23355886 39.40053608 -11.22851562 33.85742188 C-11.21777658 22.97264457 -11.20069899 12.08788698 -11.1796875 1.203125 C-7.74032091 -0.51655829 -3.78610114 0.01802641 0 0 Z M16.8203125 24.203125 C16.8203125 28.493125 16.8203125 32.783125 16.8203125 37.203125 C22.95616177 37.5215775 22.95616177 37.5215775 28.8203125 36.078125 C31.04471597 34.27671611 31.04471597 34.27671611 31.8828125 31.265625 C32.04895985 28.20767855 32.04895985 28.20767855 30.5703125 25.828125 C26.11725998 23.19677579 21.92471439 23.96005824 16.8203125 24.203125 Z M16.8203125 58.203125 C16.8203125 62.493125 16.8203125 66.783125 16.8203125 71.203125 C19.04886824 71.2845472 21.27828905 71.34250579 23.5078125 71.390625 C24.74917969 71.42542969 25.99054688 71.46023437 27.26953125 71.49609375 C31.04106866 71.1849108 32.86232939 70.51233115 35.8203125 68.203125 C36.93734254 65.29884689 37.0656696 63.88257543 36.0078125 60.953125 C34.92631882 59.05237576 34.92631882 59.05237576 32.8203125 58.203125 C30.10271142 58.13130679 27.41171862 58.11012994 24.6953125 58.140625 C23.56416016 58.14739258 23.56416016 58.14739258 22.41015625 58.15429688 C20.54684123 58.16609001 18.68356695 58.18402558 16.8203125 58.203125 Z " fill="#000000" transform="translate(225.1796875,71.796875)"/>
<path d="M0 0 C11.89364804 5.16139443 21.33155119 13.52924006 27.08984375 25.2109375 C30.11990025 32.94665778 30.23480571 41.46032001 27.375 49.25 C20.03759126 65.25424344 4.95362738 74.85549939 -11.0625 80.8125 C-23.97869729 85.11307242 -36.45104606 87.16870127 -50.01782227 87.11352539 C-51.4535685 87.11374443 -51.4535685 87.11374443 -52.9183197 87.1139679 C-56.05103907 87.11327671 -59.18369739 87.10552185 -62.31640625 87.09765625 C-64.50072701 87.09578924 -66.68504818 87.09436668 -68.86936951 87.09336853 C-74.59527764 87.08956561 -80.32116007 87.07975448 -86.04705811 87.06866455 C-91.89920708 87.05840244 -97.75136023 87.05386065 -103.60351562 87.04882812 C-115.06902348 87.03813007 -126.53450557 87.02055145 -138 87 C-138 77.1 -138 67.2 -138 57 C-135.87353027 56.98018066 -133.74706055 56.96036133 -131.55615234 56.93994141 C-124.43556075 56.87225811 -117.31510044 56.79464442 -110.19466209 56.71247292 C-105.88843205 56.66306976 -101.5822202 56.61674829 -97.27587891 56.578125 C-44.45700245 57.59134205 -44.45700245 57.59134205 2.19921875 36.08984375 C6.34711834 31.7158532 9.19824659 27.04398724 10 21 C9.60305018 13.94830313 6.72717369 8.72717369 1.75 3.75 C1.1725 3.1725 0.595 2.595 0 2 C0 1.34 0 0.68 0 0 Z " fill="#FCB104" transform="translate(164,135)"/>
<path d="M0 0 C12.82333959 -0.090906 25.64645996 -0.16406213 38.47005081 -0.20724869 C44.42660894 -0.22799154 50.38293236 -0.25606188 56.33935547 -0.30175781 C62.10361743 -0.34569528 67.86765576 -0.36923668 73.63207245 -0.37950897 C75.81495425 -0.38681538 77.9978259 -0.4010786 80.18061066 -0.42292023 C108.40632958 -0.69373912 134.96906602 4.32514562 156.4375 23.8125 C163.86037838 31.62853931 167.43500395 41.38558552 167.265625 52 C166.19784624 64.05961898 159.02565246 71.64933816 150.3125 79.375 C149.22009394 80.26463927 148.1163758 81.14063157 147 82 C146.17822266 82.63615234 146.17822266 82.63615234 145.33984375 83.28515625 C143.75 84.4375 143.75 84.4375 141 86 C140.01 85.67 139.02 85.34 138 85 C138.47050781 84.52691406 138.94101563 84.05382812 139.42578125 83.56640625 C143.86259245 78.85401672 147.13164924 74.54602883 148 68 C147.56291044 60.23523257 144.05341109 54.77689269 138.5 49.5 C117.85925209 32.2423581 87.89116053 30.93081222 62.3046875 30.68359375 C60.50293542 30.66298743 58.70118777 30.64199009 56.89944458 30.62062073 C52.18794374 30.56577943 47.47640205 30.516205 42.76483154 30.46777344 C37.94474715 30.41727896 33.12472107 30.3617397 28.3046875 30.30664062 C18.86983993 30.1995241 9.43494203 30.09844551 0 30 C0 20.1 0 10.2 0 0 Z " fill="#FCB104" transform="translate(26,20)"/>
<path d="M0 0 C7.44752537 6.38041726 13.19371699 13.64807987 16.3671875 22.9921875 C16.6171875 26.3671875 16.6171875 26.3671875 16.3671875 28.9921875 C13.71993207 31.63944293 6.78462901 30.56675732 3.2421875 30.6796875 C2.11296875 30.75896484 0.98375 30.83824219 -0.1796875 30.91992188 C-3.59799837 31.00598005 -6.34142706 30.9383912 -9.6328125 29.9921875 C-12.00495692 27.64278098 -13.49184027 25.38514671 -15.06591797 22.44848633 C-17.23210577 19.05272199 -19.87382804 17.57397927 -23.65234375 16.32421875 C-31.36302002 15.03150182 -37.94404838 15.79800344 -44.6328125 19.9921875 C-50.25115579 25.46267965 -51.83524487 31.18364985 -52.1328125 38.8046875 C-51.96233811 45.48160127 -50.82046758 50.68983287 -46.6328125 55.9921875 C-41.23119214 60.61297957 -35.88375415 62.32600216 -28.78515625 62.20703125 C-22.29661994 61.55935521 -17.82472545 58.97716507 -13.6328125 53.9921875 C-13.33947021 53.40405273 -13.04612793 52.81591797 -12.74389648 52.20996094 C-11.57268233 50.01137101 -10.55676871 48.59274367 -8.6328125 46.9921875 C-4.5269098 46.08457891 -0.56428556 46.28605855 3.6171875 46.4921875 C4.7309375 46.51539063 5.8446875 46.53859375 6.9921875 46.5625 C15.1565437 46.7815437 15.1565437 46.7815437 16.3671875 47.9921875 C16.81004993 57.35006318 12.93866051 64.59604044 7.16796875 71.69921875 C-2.22117556 81.78385523 -14.36087786 87.23228179 -28.06640625 88.15625 C-42.57247043 88.61943347 -54.83584732 84.1187954 -65.8828125 74.8046875 C-75.09038528 66.09482136 -80.87765797 54.997985 -81.8359375 42.30078125 C-82.07248764 27.81208545 -77.90231702 15.44569864 -67.9453125 4.6796875 C-49.38754452 -12.58335248 -20.53165019 -15.65766795 0 0 Z " fill="#000000" transform="translate(554.6328125,80.0078125)"/>
<path d="M0 0 C1.29474243 -0.00960754 2.58948486 -0.01921509 3.92346191 -0.02911377 C5.34285303 -0.03396048 6.76224619 -0.03823962 8.18164062 -0.04199219 C9.631307 -0.04774252 11.08097334 -0.05350026 12.53063965 -0.05926514 C15.57039749 -0.06977333 18.61012889 -0.07561763 21.64990234 -0.07910156 C25.55089023 -0.08459548 29.45153068 -0.10864295 33.35240936 -0.13707352 C36.34634435 -0.15566449 39.3401949 -0.16090352 42.33418274 -0.16243744 C43.7727499 -0.16547098 45.21131533 -0.17352303 46.64982605 -0.18662262 C48.65840802 -0.20361238 50.66713282 -0.19996837 52.67578125 -0.1953125 C53.82002563 -0.19895813 54.96427002 -0.20260376 56.14318848 -0.20635986 C57.47706604 -0.02445099 57.47706604 -0.02445099 58.83789062 0.16113281 C60.87104852 3.21086966 61.09274142 3.85070149 61.10351562 7.28613281 C61.10738281 8.46949219 61.10738281 8.46949219 61.11132812 9.67675781 C61.10359375 10.49660156 61.09585938 11.31644531 61.08789062 12.16113281 C61.09949219 13.39089844 61.09949219 13.39089844 61.11132812 14.64550781 C61.10875 15.43441406 61.10617187 16.22332031 61.10351562 17.03613281 C61.10125977 17.75542969 61.09900391 18.47472656 61.09667969 19.21582031 C60.83789062 21.16113281 60.83789062 21.16113281 58.83789062 24.16113281 C55.93632738 24.49880324 53.23792172 24.65021625 50.33007812 24.67285156 C49.06914841 24.69977837 49.06914841 24.69977837 47.78274536 24.72724915 C45.09284511 24.78151312 42.40312387 24.81529867 39.71289062 24.84863281 C37.89125104 24.88179176 36.06963513 24.91628008 34.24804688 24.95214844 C29.77812367 25.03724853 25.30825503 25.10398237 20.83789062 25.16113281 C20.83789062 28.13113281 20.83789062 31.10113281 20.83789062 34.16113281 C21.76649902 34.17571533 22.69510742 34.19029785 23.65185547 34.20532227 C27.09255559 34.26632453 30.53244715 34.34046331 33.97265625 34.42358398 C35.46245634 34.45686744 36.95238357 34.48488878 38.44238281 34.50756836 C40.58258314 34.54105352 42.72161482 34.5933607 44.86132812 34.64941406 C46.79371338 34.68869019 46.79371338 34.68869019 48.76513672 34.72875977 C49.77914551 34.87144287 50.7931543 35.01412598 51.83789062 35.16113281 C53.87104852 38.21086966 54.09274142 38.85070149 54.10351562 42.28613281 C54.10738281 43.46949219 54.10738281 43.46949219 54.11132812 44.67675781 C54.10359375 45.49660156 54.09585938 46.31644531 54.08789062 47.16113281 C54.09949219 48.39089844 54.09949219 48.39089844 54.11132812 49.64550781 C54.10875 50.43441406 54.10617187 51.22332031 54.10351562 52.03613281 C54.10125977 52.75542969 54.09900391 53.47472656 54.09667969 54.21582031 C53.83789062 56.16113281 53.83789062 56.16113281 51.83789062 59.16113281 C48.76513672 59.59350586 48.76513672 59.59350586 44.86132812 59.67285156 C44.17608063 59.69080276 43.49083313 59.70875397 42.78482056 59.72724915 C40.59424003 59.78146989 38.40387873 59.81528334 36.21289062 59.84863281 C34.72848503 59.88179575 33.24410842 59.91628446 31.75976562 59.95214844 C28.11935151 60.03720096 24.47886118 60.10395637 20.83789062 60.16113281 C20.83789062 63.13113281 20.83789062 66.10113281 20.83789062 69.16113281 C21.9785498 69.18095215 23.11920898 69.20077148 24.29443359 69.22119141 C28.51764385 69.29713849 32.74050462 69.3858721 36.96337891 69.47851562 C38.79273591 69.51685058 40.62216947 69.55169544 42.45166016 69.58300781 C45.07807822 69.62856086 47.70396721 69.68657012 50.33007812 69.74707031 C51.15095917 69.75862152 51.97184021 69.77017273 52.81759644 69.78207397 C58.61014721 69.9333894 58.61014721 69.9333894 60.83789062 72.16113281 C61.09667969 74.19238281 61.09667969 74.19238281 61.10351562 76.66113281 C61.10738281 77.99144531 61.10738281 77.99144531 61.11132812 79.34863281 C61.10359375 80.27675781 61.09585938 81.20488281 61.08789062 82.16113281 C61.09949219 83.55332031 61.09949219 83.55332031 61.11132812 84.97363281 C61.10875 85.86050781 61.10617187 86.74738281 61.10351562 87.66113281 C61.10125977 88.47582031 61.09900391 89.29050781 61.09667969 90.12988281 C60.83789062 92.16113281 60.83789062 92.16113281 58.83789062 94.16113281 C56.09849548 94.40837097 56.09849548 94.40837097 52.56811523 94.40405273 C51.25012436 94.40712936 49.93213348 94.41020599 48.57420349 94.41337585 C47.12954535 94.40647862 45.68488894 94.39921169 44.24023438 94.39160156 C42.76575257 94.3904099 41.29126999 94.38995657 39.81678772 94.39021301 C36.72571058 94.38864781 33.6347492 94.38035467 30.54370117 94.36694336 C26.5732331 94.34993856 22.60289215 94.34612941 18.63239193 94.34688854 C15.58788327 94.34661719 12.54340264 94.34114191 9.49890327 94.3338871 C8.03441136 94.33069592 6.56991627 94.32873198 5.10542107 94.32799339 C3.06302632 94.32583545 1.02064332 94.31630647 -1.02172852 94.30639648 C-2.1859584 94.30258469 -3.35018829 94.29877289 -4.54969788 94.29484558 C-7.16210938 94.16113281 -7.16210938 94.16113281 -8.16210938 93.16113281 C-8.25733356 90.30021463 -8.28764263 87.46349661 -8.27563477 84.60229492 C-8.27578079 83.7048204 -8.27592682 82.80734589 -8.27607727 81.88267517 C-8.27537779 78.90125147 -8.26758379 75.91988941 -8.25976562 72.93847656 C-8.25790157 70.87724339 -8.25647761 68.81600977 -8.25547791 66.754776 C-8.25165175 61.31809271 -8.24182063 55.88143596 -8.23077393 50.44476318 C-8.2205619 44.90165567 -8.21598073 39.35854389 -8.2109375 33.81542969 C-8.20019845 22.93065238 -8.18312087 12.0458948 -8.16210938 1.16113281 C-5.38544431 -0.22719972 -3.10693346 0.01853988 0 0 Z " fill="#000000" transform="translate(961.162109375,71.8388671875)"/>
<path d="M0 0 C1.11246094 -0.00257812 2.22492188 -0.00515625 3.37109375 -0.0078125 C4.53769531 -0.00007813 5.70429688 0.00765625 6.90625 0.015625 C8.07285156 0.00789063 9.23945313 0.00015625 10.44140625 -0.0078125 C11.55386719 -0.00523438 12.66632813 -0.00265625 13.8125 0 C14.83666016 0.00225586 15.86082031 0.00451172 16.91601562 0.00683594 C19.40625 0.265625 19.40625 0.265625 21.40625 2.265625 C21.64675903 5.087677 21.64675903 5.087677 21.63330078 8.73486328 C21.63359283 9.39839813 21.63388489 10.06193298 21.63418579 10.74557495 C21.63279056 12.94249472 21.61722067 15.13907686 21.6015625 17.3359375 C21.59783305 18.85765396 21.59498576 20.37937281 21.59298706 21.90109253 C21.58534523 25.90918592 21.56569213 29.9171347 21.5435791 33.9251709 C21.52313244 38.01389612 21.51398788 42.10264466 21.50390625 46.19140625 C21.48244667 54.21621224 21.44830421 62.24090064 21.40625 70.265625 C23.2457019 70.24205933 23.2457019 70.24205933 25.12231445 70.21801758 C29.66765792 70.16375889 34.2129727 70.12928971 38.75854492 70.10083008 C40.72669283 70.08573418 42.69480706 70.06525552 44.6628418 70.03930664 C47.49015612 70.00295851 50.3170261 69.98590686 53.14453125 69.97265625 C54.46654289 69.94943047 54.46654289 69.94943047 55.81526184 69.92573547 C56.63588608 69.92550888 57.45651031 69.92528229 58.30200195 69.92504883 C59.38455009 69.91505608 59.38455009 69.91505608 60.4889679 69.90486145 C62.97473815 70.37259403 63.85980163 71.30377517 65.40625 73.265625 C65.77856445 75.31860352 65.77856445 75.31860352 65.76953125 77.64453125 C65.76856445 78.90233398 65.76856445 78.90233398 65.76757812 80.18554688 C65.7434082 81.49362305 65.7434082 81.49362305 65.71875 82.828125 C65.72197266 83.70404297 65.72519531 84.57996094 65.72851562 85.48242188 C65.67333681 91.99853819 65.67333681 91.99853819 63.40625 94.265625 C60.55969238 94.51959229 60.55969238 94.51959229 56.87695312 94.52441406 C56.20687729 94.5279187 55.53680145 94.53142334 54.84642029 94.53503418 C52.62667548 94.54385232 50.40724817 94.53800224 48.1875 94.53125 C46.64815204 94.53259663 45.1088045 94.53453715 43.56945801 94.53704834 C40.34134883 94.53999971 37.11335024 94.53570161 33.88525391 94.52636719 C29.74219206 94.51497257 25.59938931 94.52153199 21.45633698 94.53351212 C18.2771 94.54073042 15.09792472 94.53844294 11.91868591 94.53325653 C10.39082305 94.53191995 8.86295464 94.53356806 7.33509827 94.53821564 C5.20176301 94.54328047 3.06885055 94.53557169 0.93554688 94.52441406 C-0.27975708 94.52282288 -1.49506104 94.52123169 -2.74719238 94.51959229 C-5.59375 94.265625 -5.59375 94.265625 -7.59375 92.265625 C-7.79246053 89.41462316 -7.86643023 86.66074075 -7.85253906 83.80859375 C-7.8560437 82.93369293 -7.85954834 82.05879211 -7.86315918 81.15737915 C-7.87198537 78.25588117 -7.86612422 75.35462561 -7.859375 72.453125 C-7.8607214 70.442952 -7.86266171 68.43277931 -7.86517334 66.42260742 C-7.86812581 62.20586045 -7.86382302 57.98919809 -7.85449219 53.77246094 C-7.8430976 48.35820277 -7.84965642 42.94414286 -7.86163712 37.52989197 C-7.8688524 33.37787371 -7.86656931 29.22590271 -7.86138153 25.07388306 C-7.86004412 23.07711768 -7.86169594 21.08034807 -7.86634064 19.08358765 C-7.87140043 16.2964943 -7.86370338 13.50972534 -7.85253906 10.72265625 C-7.85658752 9.89142242 -7.86063599 9.0601886 -7.86480713 8.20376587 C-7.81411255 1.39792836 -6.74769509 0.01486276 0 0 Z " fill="#000000" transform="translate(301.59375,71.734375)"/>
<path d="M0 0 C9.1516299 3.97146203 16.97613594 10.01978757 23 18 C22.67 18.66 22.34 19.32 22 20 C21.608125 19.505 21.21625 19.01 20.8125 18.5 C18.44908285 16.54406857 16.98564997 16.75792027 14 17 C13.67 16.34 13.34 15.68 13 15 C12.01 15.99 11.02 16.98 10 18 C9.78085938 17.34773438 9.56171875 16.69546875 9.3359375 16.0234375 C7.11136107 9.89228781 4.80478332 6.36798484 0 2 C0 1.34 0 0.68 0 0 Z " fill="#F8B011" transform="translate(164,135)"/>
<path d="M0 0 C0.66 0.33 1.32 0.66 2 1 C3.22485093 8.83311924 3.62066426 16.44632067 1 24 C2.65 23.34 4.3 22.68 6 22 C2.30166776 25.92247359 -1.42422217 29.1189547 -6 32 C-6.99 31.67 -7.98 31.34 -9 31 C-8.52949219 30.52691406 -8.05898437 30.05382812 -7.57421875 29.56640625 C-3.15248109 24.8700265 0.16886654 20.53824987 1 14 C0.69206227 10.86004477 -0.05843049 8.00268813 -1 5 C-1.34036323 3.66844386 -1.67585514 2.33559687 -2 1 C-1.34 0.67 -0.68 0.34 0 0 Z " fill="#E8AF29" transform="translate(173,74)"/>
<path d="M0 0 C0.66 0.33 1.32 0.66 2 1 C0.64023099 2.63776623 -0.73854764 4.25976012 -2.125 5.875 C-2.89070312 6.77992187 -3.65640625 7.68484375 -4.4453125 8.6171875 C-7.22694207 11.21167379 -9.34709892 12.07883364 -13 13 C-12.51330798 5.45627376 -12.51330798 5.45627376 -10.3125 3.5 C-7.48755945 2.88920204 -4.88118151 2.8690372 -2 3 C-2 2.34 -2 1.68 -2 1 C-1.34 0.67 -0.68 0.34 0 0 Z " fill="#FAB108" transform="translate(187,85)"/>
<path d="M0 0 C5.23911919 5.23911919 6.18895294 11.09454817 6.3125 18.375 C6.29712725 22.34116935 6.25122823 23.62315765 4 27 C3.67 21.39 3.34 15.78 3 10 C2.01 9.67 1.02 9.34 0 9 C0 6.03 0 3.06 0 0 Z " fill="#E5AA35" transform="translate(187,155)"/>
<path d="M0 0 C5.37722282 2.50318993 9.59391956 5.03452761 14 9 C13.01 9 12.02 9 11 9 C10.34 9.66 9.68 10.32 9 11 C9.66 11 10.32 11 11 11 C11 13.31 11 15.62 11 18 C10.57847656 17.13375 10.57847656 17.13375 10.1484375 16.25 C7.39568372 10.85684974 4.37382168 6.21182828 0 2 C0 1.34 0 0.68 0 0 Z " fill="#EAAD25" transform="translate(164,135)"/>
<path d="M0 0 C-7.61151079 5.1294964 -7.61151079 5.1294964 -12.1328125 5.09765625 C-12.93847656 5.09443359 -13.74414062 5.09121094 -14.57421875 5.08789062 C-15.41597656 5.07951172 -16.25773437 5.07113281 -17.125 5.0625 C-17.97449219 5.05798828 -18.82398437 5.05347656 -19.69921875 5.04882812 C-21.79950909 5.03702874 -23.8997633 5.01909306 -26 5 C-26 4.67 -26 4.34 -26 4 C-25.40985107 3.88406494 -24.81970215 3.76812988 -24.21166992 3.64868164 C-21.5365443 3.12197433 -18.86202044 2.59227135 -16.1875 2.0625 C-15.25873047 1.88009766 -14.32996094 1.69769531 -13.37304688 1.50976562 C-12.48037109 1.33251953 -11.58769531 1.15527344 -10.66796875 0.97265625 C-9.84578857 0.81031494 -9.0236084 0.64797363 -8.17651367 0.48071289 C-2.39117528 -0.79705843 -2.39117528 -0.79705843 0 0 Z " fill="#EDAD20" transform="translate(142,186)"/>
<path d="M0 0 C6.22987798 0.50512524 11.45474233 3.32604123 17 6 C12.95398079 7.34867307 10.99045067 6.03616435 7.15625 4.49609375 C6.4446875 4.33238281 5.733125 4.16867188 5 4 C4.01 4.66 3.02 5.32 2 6 C0 3 0 3 0 0 Z " fill="#F7AF12" transform="translate(147,25)"/>
<path d="M0 0 C0.66 0.33 1.32 0.66 2 1 C-0.64 3.97 -3.28 6.94 -6 10 C-8 7 -8 7 -8 4 C-6.02 3.67 -4.04 3.34 -2 3 C-2 2.34 -2 1.68 -2 1 C-1.34 0.67 -0.68 0.34 0 0 Z " fill="#F5B00F" transform="translate(187,85)"/>
<path d="M0 0 C0.66 0.33 1.32 0.66 2 1 C2.31241371 3.54941373 2.51303421 6.00361513 2.625 8.5625 C2.66367188 9.27341797 2.70234375 9.98433594 2.7421875 10.71679688 C2.83671783 12.47742425 2.91945817 14.23867728 3 16 C0.72405671 13.72405671 0.54721447 12.7094379 -0.0625 9.625 C-0.64831242 6.72982788 -1.26197739 3.86065401 -2 1 C-1.34 0.67 -0.68 0.34 0 0 Z " fill="#EDAD1D" transform="translate(173,74)"/>
<path d="M0 0 C5.66104589 0.49658297 9.87674471 1.54510684 15 4 C15 4.99 15 5.98 15 7 C7.5 4 7.5 4 0 1 C0 0.67 0 0.34 0 0 Z " fill="#EEAE27" transform="translate(143,57)"/>
<path d="M0 0 C2.96404505 2.80804268 5.44499019 5.18315774 7 9 C6.443125 8.505 5.88625 8.01 5.3125 7.5 C2.61837017 5.75245633 1.14624993 5.73781251 -2 6 C-1.49396008 3.83125748 -1.00016187 2.00032373 0 0 Z " fill="#F0B11C" transform="translate(180,146)"/>
<path d="M0 0 C3.51716303 3.51716303 3.54676163 5.19567333 4 10 C2.68 9.67 1.36 9.34 0 9 C0 6.03 0 3.06 0 0 Z " fill="#E7B124" transform="translate(187,155)"/>
<path d="M0 0 C1.98 0.99 3.96 1.98 6 3 C4.68 3.33 3.36 3.66 2 4 C2 4.66 2 5.32 2 6 C0.02 6.33 -1.96 6.66 -4 7 C-2 4 -2 4 0 3 C0 2.01 0 1.02 0 0 Z " fill="#F6B117" transform="translate(165,32)"/>
<path d="M0 0 C1.32 0.99 2.64 1.98 4 3 C1.03 5.475 1.03 5.475 -2 8 C-2.20086443 4.28400809 -2.1519437 3.22791555 0 0 Z " fill="#EEB11D" transform="translate(180,193)"/>
<path d="M0 0 C0.33 0.66 0.66 1.32 1 2 C1.66 2.33 2.32 2.66 3 3 C0.1875 5.0625 0.1875 5.0625 -3 7 C-3.99 6.67 -4.98 6.34 -6 6 C-4.02 4.02 -2.04 2.04 0 0 Z " fill="#DBAF49" transform="translate(170,99)"/>
<path d="M0 0 C3 3.75 3 3.75 3 6 C3.66 6 4.32 6 5 6 C4.67 6.99 4.34 7.98 4 9 C1.69 6.69 -0.62 4.38 -3 2 C-2.01 1.34 -1.02 0.68 0 0 Z " fill="#F0B026" transform="translate(166,66)"/>
<path d="M0 0 C3.96 1.98 3.96 1.98 8 4 C7.01 4.495 7.01 4.495 6 5 C5.67 5.66 5.34 6.32 5 7 C3.29115995 5.37660195 1.62553283 3.70680947 0 2 C0 1.34 0 0.68 0 0 Z " fill="#D6AC40" transform="translate(164,135)"/>
<path d="M0 0 C0.66 0 1.32 0 2 0 C0.90931332 3.77545388 0.0916909 6.47043472 -3 9 C-2.67 6.69 -2.34 4.38 -2 2 C-1.34 2 -0.68 2 0 2 C0 1.34 0 0.68 0 0 Z " fill="#EAAE26" transform="translate(189,183)"/>
<path d="M0 0 C1.46067199 0.45082469 2.91848032 0.91093537 4.375 1.375 C5.18710938 1.63023438 5.99921875 1.88546875 6.8359375 2.1484375 C9 3 9 3 11 5 C6.94393835 4.53199289 3.53411321 4.12046792 0 2 C0 1.34 0 0.68 0 0 Z " fill="#EEB020" transform="translate(153,27)"/>
<path d="M0 0 C0.33 0 0.66 0 1 0 C1.25 6.625 1.25 6.625 -1 10 C-1.66 10 -2.32 10 -3 10 C-2.01 6.7 -1.02 3.4 0 0 Z " fill="#EBAA2C" transform="translate(174,157)"/>
<path d="M0 0 C1.2684375 0.12375 1.2684375 0.12375 2.5625 0.25 C3.2225 1.24 3.8825 2.23 4.5625 3.25 C1.6875 3.375 1.6875 3.375 -1.4375 3.25 C-2.0975 2.59 -2.7575 1.93 -3.4375 1.25 C-2.4375 0.25 -2.4375 0.25 0 0 Z M-5.4375 2.25 C-3.4375 3.25 -3.4375 3.25 -3.4375 3.25 Z " fill="#030303" transform="translate(90.4375,67.75)"/>
<path d="M0 0 C0.66 0.33 1.32 0.66 2 1 C0.35 2.98 -1.3 4.96 -3 7 C-3.33 5.68 -3.66 4.36 -4 3 C-3.34 3 -2.68 3 -2 3 C-2 2.34 -2 1.68 -2 1 C-1.34 0.67 -0.68 0.34 0 0 Z " fill="#E5B424" transform="translate(187,85)"/>
</svg>
